# Blender v2.82 (sub 7) OBJ File: ''
# www.blender.org
mtllib slanted.mtl
o Cube
v 1.000000 1.000000 -1.000000
v 1.000000 -1.000000 -1.000000
v 1.827349 0.826553 -0.659374
v 1.000000 -1.000000 1.000000
v -1.000000 1.000000 -1.000000
v -1.000000 -1.000000 -1.000000
v -1.000000 1.000000 1.000000
v -1.000000 -1.000000 1.000000
v 0.915898 2.408139 -2.545240
v 0.915898 0.408139 -2.545240
v 0.915898 2.408139 -0.545240
v 0.915898 0.408139 -0.545240
v -1.084102 2.408139 -2.545240
v -1.084102 0.408139 -2.545240
v -1.084102 2.408139 -0.545240
v -1.084102 0.408139 -0.545240
v 0.936677 1.659904 -1.670020
v 0.936677 -0.340096 -1.670020
v 1.380472 1.707604 -0.733589
v 0.936677 -0.340096 0.329980
v -1.063323 1.659904 -1.670020
v -1.063323 -0.340096 -1.670020
v -1.063323 1.659904 0.329980
v -1.063323 -0.340096 0.329980
v 1.611627 0.980213 -2.360361
v 1.611627 -1.019787 -2.360361
v 1.835261 1.328399 -1.295844
v 1.611627 -1.019787 -0.360361
v -0.388373 0.980213 -2.360361
v -0.388373 -1.019787 -2.360361
v -0.388373 0.980213 -0.360361
v -0.388373 -1.019787 -0.360361
vt 0.625000 0.500000
vt 0.625000 0.750000
vt 0.875000 0.750000
vt 0.875000 0.500000
vt 0.375000 0.750000
vt 0.375000 1.000000
vt 0.625000 1.000000
vt 0.375000 0.000000
vt 0.375000 0.250000
vt 0.625000 0.250000
vt 0.625000 0.000000
vt 0.125000 0.500000
vt 0.125000 0.750000
vt 0.375000 0.500000
vt 0.625000 0.500000
vt 0.625000 0.750000
vt 0.875000 0.750000
vt 0.875000 0.500000
vt 0.375000 0.750000
vt 0.375000 1.000000
vt 0.625000 1.000000
vt 0.375000 0.000000
vt 0.375000 0.250000
vt 0.625000 0.250000
vt 0.625000 0.000000
vt 0.125000 0.500000
vt 0.125000 0.750000
vt 0.375000 0.500000
vt 0.625000 0.500000
vt 0.625000 0.750000
vt 0.875000 0.750000
vt 0.875000 0.500000
vt 0.375000 0.750000
vt 0.375000 1.000000
vt 0.625000 1.000000
vt 0.375000 0.000000
vt 0.375000 0.250000
vt 0.625000 0.250000
vt 0.625000 0.000000
vt 0.125000 0.500000
vt 0.125000 0.750000
vt 0.375000 0.500000
vt 0.625000 0.500000
vt 0.875000 0.500000
vt 0.875000 0.750000
vt 0.625000 0.750000
vt 0.375000 0.750000
vt 0.625000 1.000000
vt 0.375000 1.000000
vt 0.375000 0.000000
vt 0.625000 0.000000
vt 0.625000 0.250000
vt 0.375000 0.250000
vt 0.125000 0.500000
vt 0.375000 0.500000
vt 0.125000 0.750000
vn -0.0546 -0.9970 -0.0546
vn -0.3184 -0.3184 -0.8929
vn 1.0000 0.0000 0.0000
vn 0.0000 1.0000 0.0000
vn -0.8799 0.3359 0.3359
vn 0.0000 0.0000 1.0000
vn 0.0000 -1.0000 0.0000
vn 0.0000 0.0000 -1.0000
vn -1.0000 0.0000 0.0000
vn 0.0141 -0.9998 0.0141
vn -0.2245 -0.2245 -0.9482
vn -0.9786 0.1455 0.1455
vn -0.1047 0.9890 -0.1047
vn 0.1966 0.1966 0.9606
vn 0.9957 -0.0653 -0.0653
usemtl Material
s off
f 1/1/1 3/2/1 7/3/1 5/4/1
f 4/5/2 8/6/2 7/7/2 3/2/2
f 8/8/3 6/9/3 5/10/3 7/11/3
f 6/12/4 8/13/4 4/5/4 2/14/4
f 2/14/5 4/5/5 3/2/5 1/1/5
f 6/9/6 2/14/6 1/1/6 5/10/6
f 9/15/7 11/16/7 15/17/7 13/18/7
f 12/19/8 16/20/8 15/21/8 11/16/8
f 16/22/3 14/23/3 13/24/3 15/25/3
f 14/26/4 16/27/4 12/19/4 10/28/4
f 10/28/9 12/19/9 11/16/9 9/15/9
f 14/23/6 10/28/6 9/15/6 13/24/6
f 17/29/10 19/30/10 23/31/10 21/32/10
f 20/33/11 24/34/11 23/35/11 19/30/11
f 24/36/3 22/37/3 21/38/3 23/39/3
f 22/40/4 24/41/4 20/33/4 18/42/4
f 18/42/12 20/33/12 19/30/12 17/29/12
f 22/37/6 18/42/6 17/29/6 21/38/6
f 25/43/13 29/44/13 31/45/13 27/46/13
f 28/47/14 27/46/14 31/48/14 32/49/14
f 32/50/9 31/51/9 29/52/9 30/53/9
f 30/54/7 26/55/7 28/47/7 32/56/7
f 26/55/15 25/43/15 27/46/15 28/47/15
f 30/53/8 29/52/8 25/43/8 26/55/8
